# xmcd
#
# Track frame offsets:
#	150
#	15804
#	32528
#	43909
#	59668
#	68047
#	86285
#	97742
#	106184
#	117323
#	126189
#	141382
#	153561
#	165582
#	182972
#	197884
#	210135
#
# Disc length: 2991 seconds
#
# Revision: 1
# Processed by: cddbd v1.5.2PL0 Copyright (c) Steve Scherf et al.
# Submitted via: audiograbber 1.83.01
#
DISCID=de0bad11
DTITLE=Stardust - Stardust 073
DYEAR=2008
DGENRE=Country
TTITLE0=Movin Out, Movin Up, Movin On - Beau Renfo
TTITLE1=Vienna  - Becky Hobbs
TTITLE2=Dirt Farm  - Boggy Branch Band
TTITLE3=American Dream - Jerri Arnold
TTITLE4=4,99 $ And Rising - Charley Connor
TTITLE5=When I Came  - Amber Lynn Eppinette
TTITLE6=Ther Must Be More To Life Than Growing Old - Jack Blanchard and Misty Mor
TTITLE6=gan
TTITLE7=A New Heart - Ernie Ashworth
TTITLE8=Hillbilly Sailor  - William Ray
TTITLE9=Blu Moon Of Kentucky  - The Heltons
TTITLE10=Blue And Lonely  - Kenton Koty
TTITLE11=Ring Of Fire  - Cody Huber
TTITLE12=Retumed Soldier´s Grave  - Buster Doss
TTITLE13=That´s All - Larrry Franklin
TTITLE14=Redneck Preacher Man  - Ron Thompson
TTITLE15=He Will Set Your Fields On Fire  - Brazograss
TTITLE16=Let´s Go Dancing  - Rooster Quantrell
EXTD=
EXTT0=
EXTT1=
EXTT2=
EXTT3=
EXTT4=
EXTT5=
EXTT6=
EXTT7=
EXTT8=
EXTT9=
EXTT10=
EXTT11=
EXTT12=
EXTT13=
EXTT14=
EXTT15=
EXTT16=
PLAYORDER=
